ffmpeg version 3.4.8-0ubuntu0.2 Copyright (c) 2000-2020 the FFmpeg developers
  built with gcc 7 (Ubuntu 7.5.0-3ubuntu1~18.04)
  configuration: --prefix=/usr --extra-version=0ubuntu0.2 --toolchain=hardened --libdir=/usr/lib/x86_64-linux-gnu --incdir=/usr/include/x86_64-linux-gnu --enable-gpl --disable-stripping --enable-avresample --enable-avisynth --enable-gnutls --enable-ladspa --enable-libass --enable-libbluray --enable-libbs2b --enable-libcaca --enable-libcdio --enable-libflite --enable-libfontconfig --enable-libfreetype --enable-libfribidi --enable-libgme --enable-libgsm --enable-libmp3lame --enable-libmysofa --enable-libopenjpeg --enable-libopenmpt --enable-libopus --enable-libpulse --enable-librubberband --enable-librsvg --enable-libshine --enable-libsnappy --enable-libsoxr --enable-libspeex --enable-libssh --enable-libtheora --enable-libtwolame --enable-libvorbis --enable-libvpx --enable-libwavpack --enable-libwebp --enable-libx265 --enable-libxml2 --enable-libxvid --enable-libzmq --enable-libzvbi --enable-omx --enable-openal --enable-opengl --enable-sdl2 --enable-libdc1394 --enable-libdrm --enable-libiec61883 --enable-chromaprint --enable-frei0r --enable-libopencv --enable-libx264 --enable-shared
  libavutil      55. 78.100 / 55. 78.100
  libavcodec     57.107.100 / 57.107.100
  libavformat    57. 83.100 / 57. 83.100
  libavdevice    57. 10.100 / 57. 10.100
  libavfilter     6.107.100 /  6.107.100
  libavresample   3.  7.  0 /  3.  7.  0
  libswscale      4.  8.100 /  4.  8.100
  libswresample   2.  9.100 /  2.  9.100
  libpostproc    54.  7.100 / 54.  7.100
Input #0, matroska,webm, from '../.././Samples/soraya.mkv':
  Metadata:
    encoder         : libebml v0.6.3 + libmatroska v0.6.3
    creation_time   : 2004-01-14T21:57:51.000000Z
  Duration: 00:03:57.96, start: 0.000000, bitrate: 2164 kb/s
    Stream #0:0(eng): Video: mpeg2video (Main), yuv420p(tv, top first), 544x480 [SAR 20:17 DAR 4:3], SAR 1:1 DAR 17:15, 30 fps, 59.94 tbr, 1k tbn, 59.94 tbc (default)
    Stream #0:1(eng): Audio: aac (HE-AAC), 44100 Hz, stereo, fltp (default)
Stream mapping:
  Stream #0:0 -> #0:0 (mpeg2video (native) -> h264 (libx264))
  Stream #0:1 -> #0:1 (aac (native) -> aac (native))
Press [q] to stop, [?] for help
[aac @ 0x55af7466ca80] Queue input is backward in time
[libx264 @ 0x55af746bda00] using SAR=1/1
[libx264 @ 0x55af746bda00] using cpu capabilities: MMX2 SSE2Fast SSSE3 SSE4.2 AVX FMA3 BMI2 AVX2
[libx264 @ 0x55af746bda00] profile High, level 3.0
[libx264 @ 0x55af746bda00] 264 - core 152 r2854 e9a5903 - H.264/MPEG-4 AVC codec - Copyleft 2003-2017 - http://www.videolan.org/x264.html - options: cabac=1 ref=3 deblock=1:0:0 analyse=0x3:0x113 me=hex subme=7 psy=1 psy_rd=1.00:0.00 mixed_ref=1 me_range=16 chroma_me=1 trellis=1 8x8dct=1 cqm=0 deadzone=21,11 fast_pskip=1 chroma_qp_offset=-2 threads=6 lookahead_threads=1 sliced_threads=0 nr=0 decimate=1 interlaced=0 bluray_compat=0 constrained_intra=0 bframes=3 b_pyramid=2 b_adapt=1 b_bias=0 direct=1 weightb=1 open_gop=0 weightp=2 keyint=250 keyint_min=25 scenecut=40 intra_refresh=0 rc_lookahead=40 rc=crf mbtree=1 crf=23.0 qcomp=0.60 qpmin=0 qpmax=69 qpstep=4 ip_ratio=1.40 aq=1:1.00
Output #0, mov, to '/home/aleksandr/Pract/Samples/soraya.mkv_tc/output3.mov':
  Metadata:
    encoder         : Lavf57.83.100
    Stream #0:0(eng): Video: h264 (libx264) (avc1 / 0x31637661), yuv420p, 544x480 [SAR 1:1 DAR 17:15], q=-1--1, 29.97 fps, 30k tbn, 29.97 tbc (default)
    Metadata:
      encoder         : Lavc57.107.100 libx264
    Side data:
      cpb: bitrate max/min/avg: 0/0/0 buffer size: 0 vbv_delay: -1
    Stream #0:1(eng): Audio: aac (LC) (mp4a / 0x6134706D), 44100 Hz, stereo, fltp, 128 kb/s (default)
    Metadata:
      encoder         : Lavc57.107.100 aac
[mov @ 0x55af74620960] Non-monotonous DTS in output stream 0:1; previous: 15360, current: 14818; changing to 15361. This may result in incorrect timestamps in the output file.
frame=   81 fps=0.0 q=29.0 size=       0kB time=00:00:02.93 bitrate=   0.1kbits/s dup=27 drop=0 speed=5.87x    frame=  117 fps=117 q=29.0 size=     256kB time=00:00:04.00 bitrate= 523.7kbits/s dup=34 drop=0 speed=   4x    frame=  164 fps=109 q=29.0 size=     512kB time=00:00:05.58 bitrate= 751.2kbits/s dup=41 drop=0 speed=3.72x    frame=  212 fps=106 q=29.0 size=     768kB time=00:00:07.16 bitrate= 878.4kbits/s dup=49 drop=0 speed=3.58x    frame=  260 fps=103 q=29.0 size=    1024kB time=00:00:08.78 bitrate= 954.6kbits/s dup=56 drop=0 speed=3.49x    frame=  312 fps=103 q=29.0 size=    1280kB time=00:00:10.78 bitrate= 972.3kbits/s dup=64 drop=0 speed=3.57x    frame=  365 fps=103 q=29.0 size=    1280kB time=00:00:12.41 bitrate= 844.9kbits/s dup=73 drop=0 speed=3.52x    frame=  413 fps=102 q=29.0 size=    1536kB time=00:00:13.89 bitrate= 905.4kbits/s dup=81 drop=0 speed=3.44x    frame=  464 fps=102 q=29.0 size=    1792kB time=00:00:15.56 bitrate= 943.0kbits/s dup=88 drop=0 speed=3.42x    frame=  513 fps=102 q=29.0 size=    1792kB time=00:00:17.24 bitrate= 851.5kbits/s dup=98 drop=0 speed=3.41x    frame=  565 fps=102 q=29.0 size=    2048kB time=00:00:18.91 bitrate= 887.1kbits/s dup=108 drop=0 speed= 3.4x    frame=  611 fps=101 q=29.0 size=    2304kB time=00:00:20.53 bitrate= 919.0kbits/s dup=116 drop=0 speed=3.39x    frame=  658 fps=100 q=29.0 size=    2304kB time=00:00:22.07 bitrate= 855.2kbits/s dup=124 drop=0 speed=3.36x    frame=  722 fps=102 q=29.0 size=    2560kB time=00:00:24.11 bitrate= 869.7kbits/s dup=137 drop=0 speed=3.41x    frame=  786 fps=104 q=29.0 size=    2816kB time=00:00:26.29 bitrate= 877.3kbits/s dup=147 drop=0 speed=3.46x    frame=  833 fps=103 q=29.0 size=    2816kB time=00:00:28.06 bitrate= 822.1kbits/s dup=155 drop=0 speed=3.47x    frame=  891 fps=104 q=29.0 size=    3072kB time=00:00:29.82 bitrate= 843.8kbits/s dup=166 drop=0 speed=3.47x    frame=  962 fps=106 q=29.0 size=    3328kB time=00:00:32.24 bitrate= 845.6kbits/s dup=177 drop=0 speed=3.54x    frame= 1009 fps=105 q=29.0 size=    3584kB time=00:00:33.91 bitrate= 865.8kbits/s dup=186 drop=0 speed=3.53x    frame= 1066 fps=105 q=29.0 size=    3584kB time=00:00:35.58 bitrate= 825.1kbits/s dup=196 drop=0 speed=3.52x    frame= 1125 fps=106 q=29.0 size=    3840kB time=00:00:37.62 bitrate= 836.0kbits/s dup=204 drop=0 speed=3.54x    frame= 1184 fps=106 q=29.0 size=    4096kB time=00:00:39.62 bitrate= 846.8kbits/s dup=214 drop=0 speed=3.56x    frame= 1232 fps=106 q=29.0 size=    4352kB time=00:00:41.29 bitrate= 863.3kbits/s dup=222 drop=0 speed=3.55x    frame= 1280 fps=105 q=29.0 size=    4352kB time=00:00:42.96 bitrate= 829.7kbits/s dup=232 drop=0 speed=3.54x    frame= 1321 fps=104 q=29.0 size=    4608kB time=00:00:44.08 bitrate= 856.3kbits/s dup=238 drop=0 speed=3.48x    frame= 1366 fps=104 q=29.0 size=    4864kB time=00:00:45.75 bitrate= 870.9kbits/s dup=245 drop=0 speed=3.48x    frame= 1412 fps=103 q=29.0 size=    5120kB time=00:00:47.05 bitrate= 891.4kbits/s dup=251 drop=0 speed=3.44x    frame= 1468 fps=104 q=29.0 size=    5376kB time=00:00:49.09 bitrate= 897.0kbits/s dup=261 drop=0 speed=3.46x    frame= 1525 fps=104 q=29.0 size=    5376kB time=00:00:51.14 bitrate= 861.2kbits/s dup=271 drop=0 speed=3.48x    frame= 1575 fps=104 q=29.0 size=    5632kB time=00:00:52.81 bitrate= 873.6kbits/s dup=279 drop=0 speed=3.48x    frame= 1628 fps=104 q=29.0 size=    5888kB time=00:00:54.34 bitrate= 887.6kbits/s dup=290 drop=0 speed=3.46x    frame= 1686 fps=104 q=29.0 size=    5888kB time=00:00:56.29 bitrate= 856.8kbits/s dup=299 drop=0 speed=3.47x    frame= 1735 fps=104 q=29.0 size=    6144kB time=00:00:57.96 bitrate= 868.3kbits/s dup=307 drop=0 speed=3.46x    frame= 1773 fps=103 q=29.0 size=    6400kB time=00:00:59.17 bitrate= 886.0kbits/s dup=313 drop=0 speed=3.43x    frame= 1814 fps=102 q=29.0 size=    6400kB time=00:01:00.66 bitrate= 864.3kbits/s dup=321 drop=0 speed=3.42x    frame= 1859 fps=102 q=29.0 size=    6656kB time=00:01:02.33 bitrate= 874.8kbits/s dup=329 drop=0 speed=3.42x    frame= 1906 fps=102 q=29.0 size=    6912kB time=00:01:03.63 bitrate= 889.8kbits/s dup=338 drop=0 speed=3.39x    frame= 1957 fps=102 q=29.0 size=    7168kB time=00:01:05.44 bitrate= 897.3kbits/s dup=346 drop=0 speed= 3.4x    frame= 2016 fps=102 q=29.0 size=    7424kB time=00:01:07.48 bitrate= 901.2kbits/s dup=354 drop=0 speed=3.42x    frame= 2058 fps=102 q=29.0 size=    7680kB time=00:01:08.74 bitrate= 915.2kbits/s dup=363 drop=0 speed=3.39x    frame= 2097 fps=101 q=29.0 size=    7936kB time=00:01:10.41 bitrate= 923.3kbits/s dup=369 drop=0 speed=3.39x    frame= 2143 fps=101 q=29.0 size=    7936kB time=00:01:11.71 bitrate= 906.5kbits/s dup=378 drop=0 speed=3.37x    frame= 2192 fps=101 q=29.0 size=    8192kB time=00:01:13.33 bitrate= 915.0kbits/s dup=387 drop=0 speed=3.37x    frame= 2242 fps=101 q=29.0 size=    8448kB time=00:01:14.91 bitrate= 923.8kbits/s dup=397 drop=0 speed=3.36x    frame= 2297 fps=101 q=29.0 size=    8704kB time=00:01:16.86 bitrate= 927.6kbits/s dup=406 drop=0 speed=3.37x    frame= 2352 fps=101 q=29.0 size=    8704kB time=00:01:18.49 bitrate= 908.4kbits/s dup=417 drop=0 speed=3.37x    frame= 2401 fps=101 q=29.0 size=    8960kB time=00:01:20.16 bitrate= 915.6kbits/s dup=425 drop=0 speed=3.37x    frame= 2446 fps=101 q=29.0 size=    9216kB time=00:01:21.83 bitrate= 922.5kbits/s dup=434 drop=0 speed=3.37x    frame= 2485 fps=100 q=29.0 size=    9472kB time=00:01:22.95 bitrate= 935.4kbits/s dup=440 drop=0 speed=3.35x    frame= 2532 fps=100 q=29.0 size=    9728kB time=00:01:24.62 bitrate= 941.7kbits/s dup=447 drop=0 speed=3.34x    frame= 2576 fps=100 q=29.0 size=    9728kB time=00:01:25.97 bitrate= 927.0kbits/s dup=455 drop=0 speed=3.33x    frame= 2637 fps=100 q=29.0 size=    9984kB time=00:01:28.33 bitrate= 925.8kbits/s dup=466 drop=0 speed=3.36x    frame= 2697 fps=100 q=29.0 size=   10240kB time=00:01:30.01 bitrate= 931.9kbits/s dup=478 drop=0 speed=3.35x    frame= 2755 fps=101 q=29.0 size=   10240kB time=00:01:32.00 bitrate= 911.7kbits/s dup=488 drop=0 speed=3.36x    frame= 2807 fps=101 q=29.0 size=   10496kB time=00:01:33.68 bitrate= 917.8kbits/s dup=495 drop=0 speed=3.36x    frame= 2856 fps=101 q=29.0 size=   10752kB time=00:01:35.63 bitrate= 921.0kbits/s dup=504 drop=0 speed=3.37x    frame= 2901 fps=101 q=29.0 size=   10752kB time=00:01:36.97 bitrate= 908.3kbits/s dup=510 drop=0 speed=3.36x    frame= 2952 fps=101 q=29.0 size=   11008kB time=00:01:38.51 bitrate= 915.4kbits/s dup=519 drop=0 speed=3.36x    frame= 2999 fps=100 q=29.0 size=   11264kB time=00:01:40.32 bitrate= 919.8kbits/s dup=527 drop=0 speed=3.36x    frame= 3060 fps=101 q=29.0 size=   11264kB time=00:01:42.17 bitrate= 903.1kbits/s dup=538 drop=0 speed=3.37x    frame= 3117 fps=101 q=29.0 size=   11520kB time=00:01:44.22 bitrate= 905.5kbits/s dup=547 drop=0 speed=3.38x    frame= 3179 fps=101 q=29.0 size=   11776kB time=00:01:46.26 bitrate= 907.8kbits/s dup=557 drop=0 speed=3.39x    frame= 3228 fps=101 q=29.0 size=   11776kB time=00:01:47.93 bitrate= 893.8kbits/s dup=563 drop=0 speed=3.39x    frame= 3257 fps=101 q=29.0 size=   11776kB time=00:01:48.72 bitrate= 887.3kbits/s dup=569 drop=0 speed=3.36x    frame= 3305 fps=101 q=29.0 size=   12032kB time=00:01:50.35 bitrate= 893.2kbits/s dup=577 drop=0 speed=3.36x    frame= 3357 fps=101 q=29.0 size=   12032kB time=00:01:52.02 bitrate= 879.9kbits/s dup=585 drop=0 speed=3.36x    frame= 3406 fps=101 q=29.0 size=   12288kB time=00:01:54.02 bitrate= 882.9kbits/s dup=595 drop=0 speed=3.36x    frame= 3465 fps=101 q=29.0 size=   12544kB time=00:01:55.69 bitrate= 888.2kbits/s dup=605 drop=0 speed=3.36x    frame= 3518 fps=101 q=29.0 size=   12800kB time=00:01:57.55 bitrate= 892.0kbits/s dup=614 drop=0 speed=3.37x    frame= 3574 fps=101 q=29.0 size=   12800kB time=00:01:59.59 bitrate= 876.8kbits/s dup=622 drop=0 speed=3.38x    frame= 3638 fps=101 q=29.0 size=   13056kB time=00:02:01.63 bitrate= 879.3kbits/s dup=633 drop=0 speed=3.39x    frame= 3677 fps=101 q=29.0 size=   13312kB time=00:02:02.93 bitrate= 887.1kbits/s dup=639 drop=0 speed=3.38x    frame= 3731 fps=101 q=29.0 size=   13568kB time=00:02:04.60 bitrate= 892.0kbits/s dup=647 drop=0 speed=3.37x    frame= 3765 fps=101 q=29.0 size=   13824kB time=00:02:05.72 bitrate= 900.8kbits/s dup=650 drop=0 speed=3.36x    frame= 3805 fps=100 q=29.0 size=   14080kB time=00:02:07.02 bitrate= 908.0kbits/s dup=657 drop=0 speed=3.34x    frame= 3855 fps=100 q=29.0 size=   14336kB time=00:02:08.69 bitrate= 912.5kbits/s dup=666 drop=0 speed=3.34x    frame= 3922 fps=101 q=29.0 size=   14336kB time=00:02:11.06 bitrate= 896.1kbits/s dup=679 drop=0 speed=3.36x    frame= 3978 fps=101 q=29.0 size=   14592kB time=00:02:12.92 bitrate= 899.3kbits/s dup=687 drop=0 speed=3.37x    frame= 4000 fps=100 q=29.0 size=   14592kB time=00:02:13.47 bitrate= 895.6kbits/s dup=691 drop=0 speed=3.34x    frame= 4028 fps= 99 q=29.0 size=   14848kB time=00:02:14.54 bitrate= 904.0kbits/s dup=695 drop=0 speed=3.32x    frame= 4071 fps= 99 q=29.0 size=   15104kB time=00:02:16.03 bitrate= 909.6kbits/s dup=702 drop=0 speed=3.32x    frame= 4117 fps= 99 q=29.0 size=   15360kB time=00:02:17.56 bitrate= 914.7kbits/s dup=710 drop=0 speed=3.31x    frame= 4156 fps= 99 q=29.0 size=   15616kB time=00:02:18.81 bitrate= 921.5kbits/s dup=715 drop=0 speed= 3.3x    frame= 4206 fps= 99 q=29.0 size=   15872kB time=00:02:20.44 bitrate= 925.8kbits/s dup=724 drop=0 speed= 3.3x    frame= 4247 fps= 99 q=29.0 size=   16128kB time=00:02:21.93 bitrate= 930.9kbits/s dup=732 drop=0 speed= 3.3x    frame= 4312 fps= 99 q=29.0 size=   16128kB time=00:02:23.97 bitrate= 917.7kbits/s dup=743 drop=0 speed=3.31x    frame= 4368 fps= 99 q=29.0 size=   16384kB time=00:02:25.97 bitrate= 919.5kbits/s dup=753 drop=0 speed=3.31x    frame= 4424 fps= 99 q=29.0 size=   16640kB time=00:02:27.69 bitrate= 923.0kbits/s dup=761 drop=0 speed=3.31x    frame= 4482 fps= 99 q=29.0 size=   16896kB time=00:02:29.64 bitrate= 925.0kbits/s dup=770 drop=0 speed=3.32x    frame= 4533 fps= 99 q=29.0 size=   17152kB time=00:02:31.63 bitrate= 926.6kbits/s dup=780 drop=0 speed=3.33x    frame= 4602 fps=100 q=29.0 size=   17408kB time=00:02:33.72 bitrate= 927.7kbits/s dup=794 drop=0 speed=3.34x    frame= 4664 fps=100 q=29.0 size=   17408kB time=00:02:35.72 bitrate= 915.8kbits/s dup=806 drop=0 speed=3.34x    frame= 4712 fps=100 q=29.0 size=   17664kB time=00:02:37.34 bitrate= 919.6kbits/s dup=814 drop=0 speed=3.34x    frame= 4766 fps=100 q=29.0 size=   17664kB time=00:02:39.02 bitrate= 910.0kbits/s dup=824 drop=0 speed=3.34x    frame= 4825 fps=100 q=29.0 size=   17920kB time=00:02:41.06 bitrate= 911.4kbits/s dup=834 drop=0 speed=3.35x    frame= 4884 fps=100 q=29.0 size=   18176kB time=00:02:43.06 bitrate= 913.1kbits/s dup=846 drop=0 speed=3.35x    frame= 4935 fps=100 q=29.0 size=   18176kB time=00:02:45.05 bitrate= 902.1kbits/s dup=855 drop=0 speed=3.36x    frame= 4990 fps=100 q=29.0 size=   18432kB time=00:02:46.68 bitrate= 905.9kbits/s dup=864 drop=0 speed=3.36x    frame= 5042 fps=100 q=29.0 size=   18688kB time=00:02:48.54 bitrate= 908.3kbits/s dup=869 drop=0 speed=3.36x    frame= 5078 fps=100 q=29.0 size=   18944kB time=00:02:49.60 bitrate= 915.0kbits/s dup=875 drop=0 speed=3.35x    frame= 5127 fps=100 q=29.0 size=   19456kB time=00:02:51.09 bitrate= 931.5kbits/s dup=883 drop=0 speed=3.34x    frame= 5172 fps=100 q=29.0 size=   19712kB time=00:02:52.72 bitrate= 934.9kbits/s dup=888 drop=0 speed=3.34x    frame= 5216 fps=100 q=29.0 size=   19968kB time=00:02:54.20 bitrate= 939.0kbits/s dup=895 drop=0 speed=3.34x    frame= 5269 fps=100 q=29.0 size=   20224kB time=00:02:55.87 bitrate= 942.0kbits/s dup=906 drop=0 speed=3.33x    frame= 5322 fps=100 q=29.0 size=   20480kB time=00:02:57.64 bitrate= 944.4kbits/s dup=915 drop=0 speed=3.34x    frame= 5369 fps=100 q=29.0 size=   20992kB time=00:02:59.22 bitrate= 959.5kbits/s dup=921 drop=0 speed=3.33x    frame= 5419 fps=100 q=29.0 size=   21248kB time=00:03:00.89 bitrate= 962.2kbits/s dup=928 drop=0 speed=3.33x    frame= 5475 fps=100 q=29.0 size=   21504kB time=00:03:02.93 bitrate= 963.0kbits/s dup=938 drop=0 speed=3.34x    frame= 5521 fps=100 q=29.0 size=   21760kB time=00:03:04.42 bitrate= 966.6kbits/s dup=946 drop=0 speed=3.34x    frame= 5580 fps=100 q=29.0 size=   21760kB time=00:03:06.46 bitrate= 956.0kbits/s dup=955 drop=0 speed=3.34x    frame= 5644 fps=100 q=29.0 size=   22016kB time=00:03:08.46 bitrate= 957.0kbits/s dup=967 drop=0 speed=3.35x    frame= 5705 fps=100 q=29.0 size=   22272kB time=00:03:10.50 bitrate= 957.7kbits/s dup=976 drop=0 speed=3.35x    frame= 5766 fps=101 q=29.0 size=   22272kB time=00:03:12.50 bitrate= 947.8kbits/s dup=987 drop=0 speed=3.36x    frame= 5817 fps=101 q=29.0 size=   22528kB time=00:03:14.17 bitrate= 950.4kbits/s dup=992 drop=0 speed=3.36x    More than 1000 frames duplicated
frame= 5882 fps=101 q=29.0 size=   22784kB time=00:03:16.59 bitrate= 949.4kbits/s dup=1003 drop=0 speed=3.37x    frame= 5943 fps=101 q=29.0 size=   23040kB time=00:03:18.63 bitrate= 950.2kbits/s dup=1015 drop=0 speed=3.38x    frame= 5993 fps=101 q=29.0 size=   23040kB time=00:03:20.16 bitrate= 942.9kbits/s dup=1025 drop=0 speed=3.37x    frame= 6053 fps=101 q=29.0 size=   23296kB time=00:03:21.97 bitrate= 944.9kbits/s dup=1034 drop=0 speed=3.37x    frame= 6108 fps=101 q=29.0 size=   23552kB time=00:03:23.97 bitrate= 945.9kbits/s dup=1045 drop=0 speed=3.38x    frame= 6164 fps=101 q=29.0 size=   23808kB time=00:03:25.73 bitrate= 948.0kbits/s dup=1055 drop=0 speed=3.38x    frame= 6228 fps=101 q=29.0 size=   23808kB time=00:03:28.06 bitrate= 937.4kbits/s dup=1066 drop=0 speed=3.39x    frame= 6287 fps=102 q=29.0 size=   24064kB time=00:03:29.96 bitrate= 938.9kbits/s dup=1076 drop=0 speed=3.39x    frame= 6352 fps=102 q=29.0 size=   24064kB time=00:03:32.14 bitrate= 929.2kbits/s dup=1088 drop=0 speed= 3.4x    frame= 6412 fps=102 q=29.0 size=   24320kB time=00:03:34.19 bitrate= 930.1kbits/s dup=1100 drop=0 speed=3.41x    frame= 6476 fps=102 q=29.0 size=   24576kB time=00:03:36.18 bitrate= 931.3kbits/s dup=1111 drop=0 speed=3.41x    frame= 6536 fps=102 q=29.0 size=   24576kB time=00:03:38.23 bitrate= 922.5kbits/s dup=1119 drop=0 speed=3.41x    frame= 6590 fps=102 q=29.0 size=   24832kB time=00:03:39.90 bitrate= 925.1kbits/s dup=1130 drop=0 speed=3.41x    frame= 6652 fps=102 q=29.0 size=   24832kB time=00:03:41.94 bitrate= 916.5kbits/s dup=1141 drop=0 speed=3.42x    frame= 6715 fps=103 q=29.0 size=   25088kB time=00:03:44.36 bitrate= 916.0kbits/s dup=1152 drop=0 speed=3.43x    frame= 6780 fps=103 q=29.0 size=   25088kB time=00:03:46.35 bitrate= 907.9kbits/s dup=1165 drop=0 speed=3.43x    frame= 6844 fps=103 q=29.0 size=   25344kB time=00:03:48.40 bitrate= 909.0kbits/s dup=1177 drop=0 speed=3.44x    frame= 6907 fps=103 q=29.0 size=   25344kB time=00:03:50.72 bitrate= 899.9kbits/s dup=1188 drop=0 speed=3.44x    frame= 6974 fps=103 q=29.0 size=   25600kB time=00:03:52.76 bitrate= 901.0kbits/s dup=1200 drop=0 speed=3.45x    frame= 7036 fps=103 q=29.0 size=   25856kB time=00:03:54.99 bitrate= 901.3kbits/s dup=1213 drop=0 speed=3.46x    frame= 7102 fps=104 q=29.0 size=   25856kB time=00:03:57.17 bitrate= 893.0kbits/s dup=1226 drop=0 speed=3.46x    [mpeg2video @ 0x55af746190c0] ac-tex damaged at 5 20
[mpeg2video @ 0x55af746190c0] Warning MVs not available
[mpeg2video @ 0x55af746190c0] concealing 340 DC, 340 AC, 340 MV errors in P frame
frame= 7133 fps=103 q=-1.0 Lsize=   26512kB time=00:03:57.90 bitrate= 912.9kbits/s dup=1230 drop=0 speed=3.44x    
video:22523kB audio:3732kB subtitle:0kB other streams:0kB global headers:0kB muxing overhead: 0.983303%
[libx264 @ 0x55af746bda00] frame I:102   Avg QP:20.82  size: 18833
[libx264 @ 0x55af746bda00] frame P:2202  Avg QP:22.32  size:  5883
[libx264 @ 0x55af746bda00] frame B:4829  Avg QP:24.83  size:  1695
[libx264 @ 0x55af746bda00] consecutive B-frames:  2.8% 15.1% 17.0% 65.1%
[libx264 @ 0x55af746bda00] mb I  I16..4: 25.9% 64.1%  9.9%
[libx264 @ 0x55af746bda00] mb P  I16..4:  6.0% 13.6%  1.5%  P16..4: 35.9% 12.3%  6.3%  0.0%  0.0%    skip:24.5%
[libx264 @ 0x55af746bda00] mb B  I16..4:  0.5%  1.2%  0.2%  B16..8: 31.1%  3.7%  0.8%  direct: 2.3%  skip:60.4%  L0:45.3% L1:46.6% BI: 8.1%
[libx264 @ 0x55af746bda00] 8x8 transform intra:64.5% inter:81.7%
[libx264 @ 0x55af746bda00] coded y,uvDC,uvAC intra: 48.1% 50.9% 6.9% inter: 12.7% 12.3% 0.1%
[libx264 @ 0x55af746bda00] i16 v,h,dc,p: 48% 34%  6% 12%
[libx264 @ 0x55af746bda00] i8 v,h,dc,ddl,ddr,vr,hd,vl,hu: 19% 18% 33%  3%  5%  5%  5%  5%  6%
[libx264 @ 0x55af746bda00] i4 v,h,dc,ddl,ddr,vr,hd,vl,hu: 17% 39% 11%  4%  6%  6%  6%  5%  5%
[libx264 @ 0x55af746bda00] i8c dc,h,v,p: 54% 22% 21%  4%
[libx264 @ 0x55af746bda00] Weighted P-Frames: Y:1.8% UV:1.1%
[libx264 @ 0x55af746bda00] ref P L0: 62.4% 16.0% 15.8%  5.7%  0.1%
[libx264 @ 0x55af746bda00] ref B L0: 88.1% 10.0%  1.9%
[libx264 @ 0x55af746bda00] ref B L1: 97.9%  2.1%
[libx264 @ 0x55af746bda00] kb/s:775.20
[aac @ 0x55af7466ca80] Qavg: 620.296
	Command being timed: "/usr/bin/ffmpeg -i ../.././Samples/soraya.mkv -c:v libx264 -f mov /home/aleksandr/Pract/Samples/soraya.mkv_tc/output3.mov"
	User time (seconds): 244.67
	System time (seconds): 1.71
	Percent of CPU this job got: 356%
	Elapsed (wall clock) time (h:mm:ss or m:ss): 1:09.13
	Average shared text size (kbytes): 0
	Average unshared data size (kbytes): 0
	Average stack size (kbytes): 0
	Average total size (kbytes): 0
	Maximum resident set size (kbytes): 121572
	Average resident set size (kbytes): 0
	Major (requiring I/O) page faults: 0
	Minor (reclaiming a frame) page faults: 23840
	Voluntary context switches: 98613
	Involuntary context switches: 70122
	Swaps: 0
	File system inputs: 0
	File system outputs: 53120
	Socket messages sent: 0
	Socket messages received: 0
	Signals delivered: 0
	Page size (bytes): 4096
	Exit status: 0
